<svg viewBox="0 0 18 18">
  <path d="M15.95 15c-.232 1.14-1.24 2-2.45 2-1.21 0-2.218-.86-2.45-2H0v-1h11.05c.232-1.14 1.24-2 2.45-2 1.21 0 2.218.86 2.45 2H18v1h-2.05zm-2.45-2c-.83 0-1.5.67-1.5 1.5 0 .828.67 1.5 1.5 1.5.828 0 1.5-.672 1.5-1.5 0-.83-.672-1.5-1.5-1.5zm-9-2c-1.21 0-2.218-.86-2.45-2H0V8h2.05c.232-1.14 1.24-2 2.45-2 1.21 0 2.218.86 2.45 2H18v1H6.95c-.232 1.14-1.24 2-2.45 2zm0-4C3.67 7 3 7.67 3 8.5c0 .828.67 1.5 1.5 1.5.828 0 1.5-.672 1.5-1.5C6 7.67 5.328 7 4.5 7zm9-2c-1.21 0-2.218-.86-2.45-2H0V2h11.05c.232-1.14 1.24-2 2.45-2 1.21 0 2.218.86 2.45 2H18v1h-2.05c-.232 1.14-1.24 2-2.45 2zm0-4c-.83 0-1.5.672-1.5 1.5S12.67 4 13.5 4c.828 0 1.5-.672 1.5-1.5S14.328 1 13.5 1z" />
</svg>