<svg viewBox="0 0 18 18">
  <path d="M14.66318 5H15c1.65685 0 3 1.34315 3 3v7c0 1.65685-1.34315 3-3 3H3c-1.65685 0-3-1.34315-3-3V8c0-1.65685 1.34315-3 3-3h.33682C3.12085 4.54537 3 4.0368 3 3.5 3 1.567 4.567 0 6.5 0 7.47934 0 8.36474.40223 9 1.0505 9.63526.40224 10.52066 0 11.5 0 13.433 0 15 1.567 15 3.5c0 .5368-.12085 1.04537-.33682 1.5zM2 10h6V7H3c-.55228 0-1 .44772-1 1v2zm0 2v3c0 .55228.44772 1 1 1h5v-4H2zm14-2V8c0-.55228-.44772-1-1-1h-5v3h6zm0 2h-6v4h5c.55228 0 1-.44772 1-1v-3zM6.5 5C7.32843 5 8 4.32843 8 3.5S7.32843 2 6.5 2 5 2.67157 5 3.5 5.67157 5 6.5 5zm5 0c.82843 0 1.5-.67157 1.5-1.5S12.32843 2 11.5 2 10 2.67157 10 3.5 10.67157 5 11.5 5z" />
</svg>