<svg viewBox="0 0 16 18">
  <g fill="none" fillRule="evenodd">
    <path
      d="M7 8.1707V2h2v6.1707c1.1652.41184 2 1.52308 2 2.8293 0 1.65685-1.34315 3-3 3s-3-1.34315-3-3c0-1.30622.8348-2.41746 2-2.8293zM8 12c.55228 0 1-.44772 1-1s-.44772-1-1-1-1 .44772-1 1 .44772 1 1 1zm-6 4h12v2H2v-2z"
    />
    <path
      strokeWidth="2"
      d="M1.28808 10.92907C2.73013 12.65335 3.69205 14.95408 3.93786 17h8.12428c.2458-2.04592 1.20773-4.34665 2.64978-6.07093L8 1.70018l-6.71192 9.22889z"
    />
  </g>
</svg>