<svg viewBox="0 0 18 18">
  <path d="M9 18c-4.97056 0-9-4.02944-9-9s4.02944-9 9-9 9 4.02944 9 9-4.02944 9-9 9zm0-2c3.866 0 7-3.134 7-7s-3.134-7-7-7-7 3.134-7 7 3.134 7 7 7zm-.9889-5c0-.3084.01665-.5839.04994-.82653.0333-.24263.0899-.46599.16981-.67007.07992-.20408.18424-.39342.31299-.56803.12875-.1746.28857-.35034.47947-.5272.15094-.13606.29078-.26871.41953-.39797.12875-.12925.23973-.2585.33296-.38775.09323-.12925.16538-.2653.21643-.40816.05106-.14286.07658-.29592.07658-.45919 0-.38549-.08768-.67347-.26304-.86394-.17536-.19048-.43396-.28572-.7758-.28572-.13763 0-.27192.02154-.40289.06463-.13097.04308-.2475.11224-.34961.20748-.10211.09524-.18424.21655-.2464.36395-.06215.14739-.09544.32312-.09988.5272H6c.00444-.47619.08657-.88775.2464-1.23469.15982-.34694.37513-.63378.64594-.86054.27081-.22676.58935-.3957.9556-.5068C8.21422 4.05556 8.60822 4 9.02998 4c.46615 0 .88346.05896 1.25194.17687.36848.11792.67924.28912.9323.5136.25305.2245.44728.5034.58268.83674.1354.33334.20311.71315.20311 1.13946 0 .29932-.0444.56916-.13319.80952-.08879.24036-.20865.46712-.3596.68027-.15094.21316-.32408.41837-.51942.61565s-.40177.39796-.61931.60204c-.1243.11791-.22753.23583-.30966.35374-.08213.11792-.14872.2415-.19977.37075-.05106.12925-.08657.26757-.10655.41497-.01998.14739-.03219.30952-.03663.48639H8.0111zM8 13.00654c0-.1438.02366-.2767.07099-.3987.04732-.122.1142-.22767.20061-.31699.08643-.08933.19136-.16013.31482-.21242C8.70988 12.02614 8.84774 12 9 12s.29012.02614.41358.07843c.12346.05229.2284.1231.31482.21242s.15329.19499.20061.317c.04733.122.07099.2549.07099.39869 0 .13943-.02366.27015-.07099.39215-.04732.122-.1142.22767-.20061.317-.08643.08932-.19136.15904-.31482.20915C9.29012 13.97494 9.15226 14 9 14s-.29012-.02505-.41358-.07516c-.12346-.05011-.2284-.11983-.31482-.20915-.08642-.08933-.15329-.195-.20061-.317C8.02366 13.2767 8 13.14597 8 13.00654z" />
</svg>