<svg viewBox="0 0 18 18">
  <path d="M16.675 9.78c-1.75 1.752-4.725 1.664-7.012-.06L7.87 11.517l1.167 1.168-1.414 1.414-1.168-1.168-1.586 1.586 2.074 2.074-1.415 1.415-2.075-2.075-2.024 2.024L.018 16.54l2.024-2.024-.015-.016 1.414-1.414.015.016 1.586-1.586-.015-.016 1.414-1.414.015.016L8.25 8.307c-1.724-2.286-1.81-5.26-.06-7.01 1.952-1.954 5.435-1.637 7.778.706s2.66 5.825.707 7.778zm-2.12-6.363c-1.563-1.562-3.78-1.88-4.95-.707-1.172 1.17-.856 3.388.706 4.95 1.564 1.562 3.78 1.878 4.95.707 1.173-1.172.856-3.388-.706-4.95z" />
</svg>