<svg viewBox="0 0 18 18">
  <path d="M4.15974 18c-1.82776 0-2.9974-2.04663-3.94928-5.97428-.22225-.91704.22669-1.86466 1.07708-2.27353l3.9526-1.90043L8.03233 9.7132 9.7132 8.03232 7.85176 5.24015l1.9004-3.9526c.4089-.85046 1.35661-1.29941 2.2736-1.07708C15.9534 1.16234 18 2.33199 18 4.15974c0 2.94898-1.40852 6.663-4.2929 9.54737C10.82275 16.59148 7.10873 18 4.15975 18zm.91959-7.85176l-2.92515 1.40643C2.8858 14.57342 3.70108 16 4.15974 16c2.43856 0 5.64028-1.21423 8.13315-3.7071C14.78577 9.80001 16 6.5983 16 4.15973c0-.45865-1.42657-1.27394-4.4454-2.00556l-1.40636 2.92515 1.22906 1.8436c.52884.79324.42425 1.84948-.24988 2.5236l-1.68088 1.68089c-.67413.67413-1.73037.77872-2.52362.24988l-1.84359-1.22906z" />
</svg>