<svg viewBox="0 0 20 20">
  <path d="M4 0h12c2.20914 0 4 1.79086 4 4v12c0 2.20914-1.79086 4-4 4H4c-2.20914 0-4-1.79086-4-4V4c0-2.20914 1.79086-4 4-4zm0 2c-1.10457 0-2 .89543-2 2v12c0 1.10457.89543 2 2 2h12c1.10457 0 2-.89543 2-2V4c0-1.10457-.89543-2-2-2H4zm2 11h8c.55228 0 1 .44772 1 1s-.44772 1-1 1H6c-.55228 0-1-.44772-1-1s.44772-1 1-1zm0-4h8c.55228 0 1 .44772 1 1s-.44772 1-1 1H6c-.55228 0-1-.44772-1-1s.44772-1 1-1zm0-4h8c.55228 0 1 .44772 1 1s-.44772 1-1 1H6c-.55228 0-1-.44772-1-1s.44772-1 1-1z" />
</svg>