<svg viewBox="0 0 20 20">
  <path d="M18 20c0-1.95-.707-3.73-1.867-5.115C14.44 16.207 12.315 17 10 17s-4.44-.793-6.133-2.115C2.707 16.27 2 18.05 2 20H0c0-2.842 1.194-5.397 3.098-7.216.24-.234.493-.456.758-.663.21.25.435.485.673.706.038.038.082.07.122.108.207.185.422.362.647.526C6.62 14.423 8.24 15 10 15c1.76 0 3.38-.577 4.7-1.54.226-.164.44-.34.647-.526.04-.037.084-.07.124-.108.24-.22.465-.455.674-.705.265.208.517.43.758.664C18.806 14.604 20 17.158 20 20h-2zm-8-8c-3.314 0-6-2.686-6-6s2.686-6 6-6 6 2.686 6 6-2.686 6-6 6zm0-10C7.79 2 6 3.79 6 6s1.79 4 4 4 4-1.79 4-4-1.79-4-4-4z" />
</svg>
