<svg viewBox="0 0 20 20">
  <path d="M10 20C4.477 20 0 15.523 0 10S4.477 0 10 0s10 4.477 10 10-4.477 10-10 10zm-3.86-2.993C7.287 17.64 8.6 18 10 18s2.713-.36 3.857-.992c.088-.322.142-.658.142-1.008 0-1.12-.463-2.13-1.204-2.855-.798.54-1.76.855-2.796.855-1.036 0-2-.315-2.797-.855C6.463 13.87 6 14.88 6 16c0 .35.054.685.14 1.007zM13 9c0-1.657-1.343-3-3-3S7 7.343 7 9s1.343 3 3 3 3-1.343 3-3zm-3-7c-4.418 0-8 3.582-8 8 0 2.06.785 3.932 2.065 5.35.154-1.412.804-2.667 1.757-3.613C5.305 10.95 5 10.012 5 9c0-2.76 2.24-5 5-5s5 2.24 5 5c0 1.012-.306 1.95-.823 2.738.953.947 1.603 2.202 1.757 3.614C17.214 13.934 18 12.062 18 10c0-4.418-3.582-8-8-8z" />
</svg>